<?xml version="1.0" standalone="no"?><!DOCTYPE svg PUBLIC "-//W3C//DTD SVG 1.1//EN" "http://www.w3.org/Graphics/SVG/1.1/DTD/svg11.dtd"><svg t="1517380319980" class="icon" style="" viewBox="0 0 1024 1024" version="1.1" xmlns="http://www.w3.org/2000/svg" p-id="1942" xmlns:xlink="http://www.w3.org/1999/xlink" width="200" height="200"><defs><style type="text/css"></style></defs><path d="M805.677 678H906V137.7c0-0.072-0.972 0.3-1.696 0.3H125v561h401.869l3.867 1.982S761.387 832.565 816.111 863.76L797.279 678h8.398zM246.395 333.851c0-45.515 37.029-82.543 82.543-82.543s82.543 37.029 82.543 82.543-37.029 82.543-82.543 82.543-82.543-37.028-82.543-82.543z m361.451 228.453c-25.872 10.699-59.908 16.494-95.837 16.494s-69.965-5.746-95.837-16.445C374.915 545.292 368.756 522 368.756 510h33.591c0 5 8.343 13.687 26.661 21.263 21.579 8.924 51.832 13.945 83.001 13.945s61.421-4.971 83.001-13.896C613.327 523.736 621.671 515 621.671 510h33.591c-0.001 12-6.16 35.243-47.416 52.304z m87.232-145.91c-45.515 0-82.543-37.029-82.543-82.543s37.029-82.543 82.543-82.543c45.515 0 82.543 37.029 82.543 82.543s-37.028 82.543-82.543 82.543z" fill="#F9F455" p-id="1943"></path><path d="M904.304 104H119.539C89.466 104 65 128.863 65 159.425v517.298C65 707.284 89.466 732 119.539 732h398.429c34.254 20 284.848 162.442 292.86 167.011 5.582 3.184 10.775 4.768 15.874 4.767 7.977-0.001 14.871-3.852 19.076-10.598 2.903-4.656 4.221-10.346 4.221-17.432V732h54.304C934.659 732 959 707.284 959 676.723V159.425C959 128.863 934.659 104 904.304 104zM927 678.402C927 698.557 906.449 699 906.449 699H817v169.19l-0.685-4.759c-54.724-31.195-285.477-162.449-285.477-162.449L526.869 699H117.906C106.774 699 98 689.534 98 678.402V156.905C98 145.774 106.774 137 117.905 137H125v1h779.304c0.724 0 1.696-0.371 1.696-0.3v-0.949c11 0 21 9.023 21 20.154v521.497z" fill="" p-id="1944"></path><path d="M377.891 333.851c0-26.993-21.96-48.953-48.953-48.953-26.993 0-48.953 21.96-48.953 48.953 0 26.992 21.96 48.953 48.953 48.953 26.993 0 48.953-21.961 48.953-48.953z" fill="#FFFFFF" p-id="1945"></path><path d="M411.482 333.851c0-45.515-37.029-82.543-82.543-82.543s-82.543 37.029-82.543 82.543 37.029 82.543 82.543 82.543 82.543-37.028 82.543-82.543z m-131.496 0c0-26.993 21.96-48.953 48.953-48.953 26.992 0 48.953 21.96 48.953 48.953 0 26.992-21.96 48.953-48.953 48.953-26.993 0-48.953-21.961-48.953-48.953z" fill="" p-id="1946"></path><path d="M744.031 333.851c0-26.993-21.96-48.953-48.953-48.953s-48.953 21.96-48.953 48.953c0 26.992 21.96 48.953 48.953 48.953s48.953-21.961 48.953-48.953z" fill="#FFFFFF" p-id="1947"></path><path d="M695.078 251.307c-45.515 0-82.543 37.029-82.543 82.543s37.029 82.543 82.543 82.543c45.515 0 82.543-37.029 82.543-82.543s-37.028-82.543-82.543-82.543z m-48.952 82.544c0-26.993 21.96-48.953 48.953-48.953s48.953 21.96 48.953 48.953c0 26.992-21.96 48.953-48.953 48.953s-48.953-21.961-48.953-48.953zM595.009 531.263c-21.579 8.924-51.832 13.945-83.001 13.945s-61.421-4.971-83.001-13.896C410.689 523.736 402.346 515 402.346 510h-33.591c0 12 6.16 35.243 47.415 52.304 25.873 10.699 59.908 16.494 95.837 16.494s69.965-5.746 95.837-16.445C649.102 545.292 655.261 522 655.261 510H621.67c0.001 5-8.343 13.687-26.661 21.263z" fill="" p-id="1948"></path><path d="M125 137h-7.095C106.774 137 98 145.774 98 156.905v521.497C98 689.534 106.774 699 117.905 699H125V137z" fill="#FFFFFF" p-id="1949"></path><path d="M906 136.751V678H797.279l19.036 185.65 0.685 4.54V699h89.449S927 698.557 927 678.402V156.905c0-11.131-10-20.154-21-20.154z" fill="#FF9702" p-id="1950"></path></svg>